<mxfile host="Electron" modified="2023-05-24T11:41:01.410Z" agent="Mozilla/5.0 (Windows NT 10.0; Win64; x64) AppleWebKit/537.36 (KHTML, like Gecko) draw.io/21.2.8 Chrome/112.0.5615.165 Electron/24.2.0 Safari/537.36" etag="kOIJZaagSQ_TFViD394I" version="21.2.8" type="device">
  <diagram name="Page-1" id="9WA98a_Oizc-aBJSIqik">
    <mxGraphModel dx="1520" dy="924" grid="0" gridSize="10" guides="0" tooltips="1" connect="1" arrows="1" fold="1" page="0" pageScale="1" pageWidth="850" pageHeight="1100" math="0" shadow="0">
      <root>
        <mxCell id="0" />
        <mxCell id="1" parent="0" />
        <mxCell id="AoQbURMq3HvfSzOHLyI9-1" value="AWS Cloud" style="points=[[0,0],[0.25,0],[0.5,0],[0.75,0],[1,0],[1,0.25],[1,0.5],[1,0.75],[1,1],[0.75,1],[0.5,1],[0.25,1],[0,1],[0,0.75],[0,0.5],[0,0.25]];outlineConnect=0;gradientColor=none;html=1;whiteSpace=wrap;fontSize=12;fontStyle=0;container=1;pointerEvents=0;collapsible=0;recursiveResize=0;shape=mxgraph.aws4.group;grIcon=mxgraph.aws4.group_aws_cloud_alt;strokeColor=#232F3E;fillColor=none;verticalAlign=top;align=left;spacingLeft=30;fontColor=#232F3E;dashed=0;" parent="1" vertex="1">
          <mxGeometry x="-50" y="120" width="960" height="1570" as="geometry" />
        </mxCell>
        <mxCell id="AoQbURMq3HvfSzOHLyI9-8" value="Private subnet" style="points=[[0,0],[0.25,0],[0.5,0],[0.75,0],[1,0],[1,0.25],[1,0.5],[1,0.75],[1,1],[0.75,1],[0.5,1],[0.25,1],[0,1],[0,0.75],[0,0.5],[0,0.25]];outlineConnect=0;gradientColor=none;html=1;whiteSpace=wrap;fontSize=12;fontStyle=0;container=1;pointerEvents=0;collapsible=0;recursiveResize=0;shape=mxgraph.aws4.group;grIcon=mxgraph.aws4.group_security_group;grStroke=0;strokeColor=#147EBA;fillColor=#E6F2F8;verticalAlign=top;align=left;spacingLeft=30;fontColor=#147EBA;dashed=0;" parent="AoQbURMq3HvfSzOHLyI9-1" vertex="1">
          <mxGeometry x="90" y="800" width="280" height="320" as="geometry" />
        </mxCell>
        <mxCell id="AoQbURMq3HvfSzOHLyI9-7" value="Public subnet" style="points=[[0,0],[0.25,0],[0.5,0],[0.75,0],[1,0],[1,0.25],[1,0.5],[1,0.75],[1,1],[0.75,1],[0.5,1],[0.25,1],[0,1],[0,0.75],[0,0.5],[0,0.25]];outlineConnect=0;gradientColor=none;html=1;whiteSpace=wrap;fontSize=12;fontStyle=0;container=1;pointerEvents=0;collapsible=0;recursiveResize=0;shape=mxgraph.aws4.group;grIcon=mxgraph.aws4.group_security_group;grStroke=0;strokeColor=#248814;fillColor=#E9F3E6;verticalAlign=top;align=left;spacingLeft=30;fontColor=#248814;dashed=0;" parent="AoQbURMq3HvfSzOHLyI9-1" vertex="1">
          <mxGeometry x="90" y="360" width="280" height="320" as="geometry" />
        </mxCell>
        <mxCell id="AoQbURMq3HvfSzOHLyI9-11" value="" style="sketch=0;outlineConnect=0;fontColor=#232F3E;gradientColor=none;fillColor=#4D27AA;strokeColor=none;dashed=0;verticalLabelPosition=bottom;verticalAlign=top;align=center;html=1;fontSize=12;fontStyle=0;aspect=fixed;pointerEvents=1;shape=mxgraph.aws4.nat_gateway;" parent="AoQbURMq3HvfSzOHLyI9-7" vertex="1">
          <mxGeometry x="20" y="121" width="78" height="78" as="geometry" />
        </mxCell>
        <mxCell id="AoQbURMq3HvfSzOHLyI9-13" value="" style="sketch=0;points=[[0,0,0],[0.25,0,0],[0.5,0,0],[0.75,0,0],[1,0,0],[0,1,0],[0.25,1,0],[0.5,1,0],[0.75,1,0],[1,1,0],[0,0.25,0],[0,0.5,0],[0,0.75,0],[1,0.25,0],[1,0.5,0],[1,0.75,0]];outlineConnect=0;fontColor=#232F3E;gradientColor=#F78E04;gradientDirection=north;fillColor=#D05C17;strokeColor=#ffffff;dashed=0;verticalLabelPosition=bottom;verticalAlign=top;align=center;html=1;fontSize=12;fontStyle=0;aspect=fixed;shape=mxgraph.aws4.resourceIcon;resIcon=mxgraph.aws4.ec2;" parent="AoQbURMq3HvfSzOHLyI9-7" vertex="1">
          <mxGeometry x="150" y="152" width="78" height="78" as="geometry" />
        </mxCell>
        <mxCell id="AoQbURMq3HvfSzOHLyI9-2" value="VPC" style="points=[[0,0],[0.25,0],[0.5,0],[0.75,0],[1,0],[1,0.25],[1,0.5],[1,0.75],[1,1],[0.75,1],[0.5,1],[0.25,1],[0,1],[0,0.75],[0,0.5],[0,0.25]];outlineConnect=0;gradientColor=none;html=1;whiteSpace=wrap;fontSize=12;fontStyle=0;container=1;pointerEvents=0;collapsible=0;recursiveResize=0;shape=mxgraph.aws4.group;grIcon=mxgraph.aws4.group_vpc;strokeColor=#248814;fillColor=none;verticalAlign=top;align=left;spacingLeft=30;fontColor=#AAB7B8;dashed=0;" parent="AoQbURMq3HvfSzOHLyI9-1" vertex="1">
          <mxGeometry x="20" y="320" width="910" height="1214" as="geometry" />
        </mxCell>
        <mxCell id="AoQbURMq3HvfSzOHLyI9-6" value="Availability Zone" style="fillColor=none;strokeColor=#147EBA;dashed=1;verticalAlign=top;fontStyle=0;fontColor=#147EBA;whiteSpace=wrap;html=1;" parent="AoQbURMq3HvfSzOHLyI9-2" vertex="1">
          <mxGeometry x="520" y="-40" width="360" height="1226" as="geometry" />
        </mxCell>
        <mxCell id="AoQbURMq3HvfSzOHLyI9-9" value="Private subnet" style="points=[[0,0],[0.25,0],[0.5,0],[0.75,0],[1,0],[1,0.25],[1,0.5],[1,0.75],[1,1],[0.75,1],[0.5,1],[0.25,1],[0,1],[0,0.75],[0,0.5],[0,0.25]];outlineConnect=0;gradientColor=none;html=1;whiteSpace=wrap;fontSize=12;fontStyle=0;container=1;pointerEvents=0;collapsible=0;recursiveResize=0;shape=mxgraph.aws4.group;grIcon=mxgraph.aws4.group_security_group;grStroke=0;strokeColor=#147EBA;fillColor=#E6F2F8;verticalAlign=top;align=left;spacingLeft=30;fontColor=#147EBA;dashed=0;" parent="AoQbURMq3HvfSzOHLyI9-2" vertex="1">
          <mxGeometry x="560" y="480" width="280" height="320" as="geometry" />
        </mxCell>
        <mxCell id="AoQbURMq3HvfSzOHLyI9-10" value="Public subnet" style="points=[[0,0],[0.25,0],[0.5,0],[0.75,0],[1,0],[1,0.25],[1,0.5],[1,0.75],[1,1],[0.75,1],[0.5,1],[0.25,1],[0,1],[0,0.75],[0,0.5],[0,0.25]];outlineConnect=0;gradientColor=none;html=1;whiteSpace=wrap;fontSize=12;fontStyle=0;container=1;pointerEvents=0;collapsible=0;recursiveResize=0;shape=mxgraph.aws4.group;grIcon=mxgraph.aws4.group_security_group;grStroke=0;strokeColor=#248814;fillColor=#E9F3E6;verticalAlign=top;align=left;spacingLeft=30;fontColor=#248814;dashed=0;" parent="AoQbURMq3HvfSzOHLyI9-2" vertex="1">
          <mxGeometry x="560" y="40" width="280" height="320" as="geometry" />
        </mxCell>
        <mxCell id="AoQbURMq3HvfSzOHLyI9-12" value="" style="sketch=0;outlineConnect=0;fontColor=#232F3E;gradientColor=none;fillColor=#4D27AA;strokeColor=none;dashed=0;verticalLabelPosition=bottom;verticalAlign=top;align=center;html=1;fontSize=12;fontStyle=0;aspect=fixed;pointerEvents=1;shape=mxgraph.aws4.nat_gateway;" parent="AoQbURMq3HvfSzOHLyI9-10" vertex="1">
          <mxGeometry x="190" y="121" width="78" height="78" as="geometry" />
        </mxCell>
        <mxCell id="4SqeToWKOJceurVRJzmu-41" value="&lt;font style=&quot;font-size: 14px;&quot;&gt;&lt;b&gt;NAT Gateway&lt;br&gt;&lt;/b&gt;&lt;/font&gt;" style="text;html=1;align=center;verticalAlign=middle;resizable=0;points=[];autosize=1;strokeColor=none;fillColor=none;" vertex="1" parent="AoQbURMq3HvfSzOHLyI9-10">
          <mxGeometry x="172" y="94" width="107" height="29" as="geometry" />
        </mxCell>
        <mxCell id="AoQbURMq3HvfSzOHLyI9-14" value="" style="sketch=0;points=[[0,0,0],[0.25,0,0],[0.5,0,0],[0.75,0,0],[1,0,0],[0,1,0],[0.25,1,0],[0.5,1,0],[0.75,1,0],[1,1,0],[0,0.25,0],[0,0.5,0],[0,0.75,0],[1,0.25,0],[1,0.5,0],[1,0.75,0]];outlineConnect=0;fontColor=#232F3E;gradientColor=#F78E04;gradientDirection=north;fillColor=#D05C17;strokeColor=#ffffff;dashed=0;verticalLabelPosition=bottom;verticalAlign=top;align=center;html=1;fontSize=12;fontStyle=0;aspect=fixed;shape=mxgraph.aws4.resourceIcon;resIcon=mxgraph.aws4.ec2;" parent="AoQbURMq3HvfSzOHLyI9-2" vertex="1">
          <mxGeometry x="600" y="194" width="78" height="78" as="geometry" />
        </mxCell>
        <mxCell id="4SqeToWKOJceurVRJzmu-4" value="Private subnet" style="points=[[0,0],[0.25,0],[0.5,0],[0.75,0],[1,0],[1,0.25],[1,0.5],[1,0.75],[1,1],[0.75,1],[0.5,1],[0.25,1],[0,1],[0,0.75],[0,0.5],[0,0.25]];outlineConnect=0;gradientColor=none;html=1;whiteSpace=wrap;fontSize=12;fontStyle=0;container=1;pointerEvents=0;collapsible=0;recursiveResize=0;shape=mxgraph.aws4.group;grIcon=mxgraph.aws4.group_security_group;grStroke=0;strokeColor=#147EBA;fillColor=#E6F2F8;verticalAlign=top;align=left;spacingLeft=30;fontColor=#147EBA;dashed=0;" vertex="1" parent="AoQbURMq3HvfSzOHLyI9-2">
          <mxGeometry x="556" y="962" width="280" height="180" as="geometry" />
        </mxCell>
        <mxCell id="4SqeToWKOJceurVRJzmu-6" value="" style="sketch=0;points=[[0,0,0],[0.25,0,0],[0.5,0,0],[0.75,0,0],[1,0,0],[0,1,0],[0.25,1,0],[0.5,1,0],[0.75,1,0],[1,1,0],[0,0.25,0],[0,0.5,0],[0,0.75,0],[1,0.25,0],[1,0.5,0],[1,0.75,0]];outlineConnect=0;fontColor=#232F3E;gradientColor=#4D72F3;gradientDirection=north;fillColor=#3334B9;strokeColor=#ffffff;dashed=0;verticalLabelPosition=bottom;verticalAlign=top;align=center;html=1;fontSize=12;fontStyle=0;aspect=fixed;shape=mxgraph.aws4.resourceIcon;resIcon=mxgraph.aws4.rds;" vertex="1" parent="4SqeToWKOJceurVRJzmu-4">
          <mxGeometry x="110" y="53" width="78" height="78" as="geometry" />
        </mxCell>
        <mxCell id="4SqeToWKOJceurVRJzmu-27" style="edgeStyle=orthogonalEdgeStyle;rounded=0;orthogonalLoop=1;jettySize=auto;html=1;exitX=1;exitY=0.5;exitDx=0;exitDy=0;exitPerimeter=0;" edge="1" parent="AoQbURMq3HvfSzOHLyI9-2" source="AoQbURMq3HvfSzOHLyI9-16" target="AoQbURMq3HvfSzOHLyI9-12">
          <mxGeometry relative="1" as="geometry" />
        </mxCell>
        <mxCell id="AoQbURMq3HvfSzOHLyI9-16" value="" style="sketch=0;points=[[0,0,0],[0.25,0,0],[0.5,0,0],[0.75,0,0],[1,0,0],[0,1,0],[0.25,1,0],[0.5,1,0],[0.75,1,0],[1,1,0],[0,0.25,0],[0,0.5,0],[0,0.75,0],[1,0.25,0],[1,0.5,0],[1,0.75,0]];outlineConnect=0;fontColor=#232F3E;gradientColor=#F78E04;gradientDirection=north;fillColor=#D05C17;strokeColor=#ffffff;dashed=0;verticalLabelPosition=bottom;verticalAlign=top;align=center;html=1;fontSize=12;fontStyle=0;aspect=fixed;shape=mxgraph.aws4.resourceIcon;resIcon=mxgraph.aws4.ec2;" parent="AoQbURMq3HvfSzOHLyI9-2" vertex="1">
          <mxGeometry x="650" y="598" width="78" height="78" as="geometry" />
        </mxCell>
        <mxCell id="4SqeToWKOJceurVRJzmu-29" value="Auto Scaling group" style="points=[[0,0],[0.25,0],[0.5,0],[0.75,0],[1,0],[1,0.25],[1,0.5],[1,0.75],[1,1],[0.75,1],[0.5,1],[0.25,1],[0,1],[0,0.75],[0,0.5],[0,0.25]];outlineConnect=0;gradientColor=none;html=1;whiteSpace=wrap;fontSize=12;fontStyle=0;container=1;pointerEvents=0;collapsible=0;recursiveResize=0;shape=mxgraph.aws4.groupCenter;grIcon=mxgraph.aws4.group_auto_scaling_group;grStroke=1;strokeColor=#D86613;fillColor=none;verticalAlign=top;align=center;fontColor=#D86613;dashed=1;spacingTop=25;" vertex="1" parent="AoQbURMq3HvfSzOHLyI9-2">
          <mxGeometry x="190" y="154" width="523" height="163" as="geometry" />
        </mxCell>
        <mxCell id="4SqeToWKOJceurVRJzmu-30" value="Auto Scaling group" style="points=[[0,0],[0.25,0],[0.5,0],[0.75,0],[1,0],[1,0.25],[1,0.5],[1,0.75],[1,1],[0.75,1],[0.5,1],[0.25,1],[0,1],[0,0.75],[0,0.5],[0,0.25]];outlineConnect=0;gradientColor=none;html=1;whiteSpace=wrap;fontSize=12;fontStyle=0;container=1;pointerEvents=0;collapsible=0;recursiveResize=0;shape=mxgraph.aws4.groupCenter;grIcon=mxgraph.aws4.group_auto_scaling_group;grStroke=1;strokeColor=#D86613;fillColor=none;verticalAlign=top;align=center;fontColor=#D86613;dashed=1;spacingTop=25;" vertex="1" parent="AoQbURMq3HvfSzOHLyI9-2">
          <mxGeometry x="154" y="557" width="599" height="154" as="geometry" />
        </mxCell>
        <mxCell id="4SqeToWKOJceurVRJzmu-32" value="&lt;font style=&quot;font-size: 14px;&quot;&gt;&lt;b&gt;RDS&lt;br&gt;Secondary DB&lt;br&gt;&lt;/b&gt;&lt;/font&gt;" style="text;html=1;align=center;verticalAlign=middle;resizable=0;points=[];autosize=1;strokeColor=none;fillColor=none;" vertex="1" parent="AoQbURMq3HvfSzOHLyI9-2">
          <mxGeometry x="648" y="1091" width="114" height="46" as="geometry" />
        </mxCell>
        <mxCell id="4SqeToWKOJceurVRJzmu-34" value="&lt;font style=&quot;font-size: 14px;&quot;&gt;&lt;b&gt;App Server&lt;br&gt;&lt;/b&gt;&lt;/font&gt;" style="text;html=1;align=center;verticalAlign=middle;resizable=0;points=[];autosize=1;strokeColor=none;fillColor=none;" vertex="1" parent="AoQbURMq3HvfSzOHLyI9-2">
          <mxGeometry x="646" y="669" width="93" height="29" as="geometry" />
        </mxCell>
        <mxCell id="4SqeToWKOJceurVRJzmu-39" value="&lt;font style=&quot;font-size: 14px;&quot;&gt;&lt;b&gt;Web Server&lt;br&gt;&lt;/b&gt;&lt;/font&gt;" style="text;html=1;align=center;verticalAlign=middle;resizable=0;points=[];autosize=1;strokeColor=none;fillColor=none;" vertex="1" parent="AoQbURMq3HvfSzOHLyI9-2">
          <mxGeometry x="592" y="271" width="95" height="29" as="geometry" />
        </mxCell>
        <mxCell id="4SqeToWKOJceurVRJzmu-43" value="&lt;font style=&quot;font-size: 14px;&quot;&gt;&lt;b&gt;Load balancer&lt;br&gt;&lt;/b&gt;&lt;/font&gt;" style="text;html=1;align=center;verticalAlign=middle;resizable=0;points=[];autosize=1;strokeColor=none;fillColor=none;" vertex="1" parent="AoQbURMq3HvfSzOHLyI9-2">
          <mxGeometry x="397" y="446" width="113" height="29" as="geometry" />
        </mxCell>
        <mxCell id="4SqeToWKOJceurVRJzmu-21" style="edgeStyle=orthogonalEdgeStyle;rounded=0;orthogonalLoop=1;jettySize=auto;html=1;exitX=0.75;exitY=1;exitDx=0;exitDy=0;exitPerimeter=0;entryX=0.5;entryY=0;entryDx=0;entryDy=0;entryPerimeter=0;" edge="1" parent="AoQbURMq3HvfSzOHLyI9-2" source="4SqeToWKOJceurVRJzmu-43" target="AoQbURMq3HvfSzOHLyI9-16">
          <mxGeometry relative="1" as="geometry" />
        </mxCell>
        <mxCell id="AoQbURMq3HvfSzOHLyI9-5" value="Availability Zone" style="fillColor=none;strokeColor=#147EBA;dashed=1;verticalAlign=top;fontStyle=0;fontColor=#147EBA;whiteSpace=wrap;html=1;" parent="AoQbURMq3HvfSzOHLyI9-1" vertex="1">
          <mxGeometry x="50" y="280" width="360" height="1232" as="geometry" />
        </mxCell>
        <mxCell id="AoQbURMq3HvfSzOHLyI9-29" style="edgeStyle=orthogonalEdgeStyle;rounded=0;orthogonalLoop=1;jettySize=auto;html=1;entryX=1;entryY=0.5;entryDx=0;entryDy=0;entryPerimeter=0;" parent="AoQbURMq3HvfSzOHLyI9-1" target="AoQbURMq3HvfSzOHLyI9-20" edge="1">
          <mxGeometry relative="1" as="geometry">
            <Array as="points">
              <mxPoint x="688" y="224" />
            </Array>
            <mxPoint x="688" y="87.53999999999996" as="sourcePoint" />
          </mxGeometry>
        </mxCell>
        <mxCell id="4SqeToWKOJceurVRJzmu-16" style="edgeStyle=orthogonalEdgeStyle;rounded=0;orthogonalLoop=1;jettySize=auto;html=1;exitX=0.25;exitY=1;exitDx=0;exitDy=0;exitPerimeter=0;" edge="1" parent="AoQbURMq3HvfSzOHLyI9-1" source="AoQbURMq3HvfSzOHLyI9-20" target="AoQbURMq3HvfSzOHLyI9-13">
          <mxGeometry relative="1" as="geometry" />
        </mxCell>
        <mxCell id="4SqeToWKOJceurVRJzmu-17" style="edgeStyle=orthogonalEdgeStyle;rounded=0;orthogonalLoop=1;jettySize=auto;html=1;exitX=0.75;exitY=1;exitDx=0;exitDy=0;exitPerimeter=0;entryX=0.5;entryY=0;entryDx=0;entryDy=0;entryPerimeter=0;" edge="1" parent="AoQbURMq3HvfSzOHLyI9-1" source="AoQbURMq3HvfSzOHLyI9-20" target="AoQbURMq3HvfSzOHLyI9-14">
          <mxGeometry relative="1" as="geometry" />
        </mxCell>
        <mxCell id="AoQbURMq3HvfSzOHLyI9-20" value="" style="sketch=0;points=[[0,0,0],[0.25,0,0],[0.5,0,0],[0.75,0,0],[1,0,0],[0,1,0],[0.25,1,0],[0.5,1,0],[0.75,1,0],[1,1,0],[0,0.25,0],[0,0.5,0],[0,0.75,0],[1,0.25,0],[1,0.5,0],[1,0.75,0]];outlineConnect=0;fontColor=#232F3E;gradientColor=#945DF2;gradientDirection=north;fillColor=#5A30B5;strokeColor=#ffffff;dashed=0;verticalLabelPosition=bottom;verticalAlign=top;align=center;html=1;fontSize=12;fontStyle=0;aspect=fixed;shape=mxgraph.aws4.resourceIcon;resIcon=mxgraph.aws4.elastic_load_balancing;" parent="AoQbURMq3HvfSzOHLyI9-1" vertex="1">
          <mxGeometry x="441" y="190" width="68" height="68" as="geometry" />
        </mxCell>
        <mxCell id="AoQbURMq3HvfSzOHLyI9-30" style="edgeStyle=orthogonalEdgeStyle;rounded=0;orthogonalLoop=1;jettySize=auto;html=1;exitX=0.5;exitY=1;exitDx=0;exitDy=0;exitPerimeter=0;entryX=0;entryY=0.5;entryDx=0;entryDy=0;entryPerimeter=0;" parent="AoQbURMq3HvfSzOHLyI9-1" source="AoQbURMq3HvfSzOHLyI9-21" target="AoQbURMq3HvfSzOHLyI9-20" edge="1">
          <mxGeometry relative="1" as="geometry" />
        </mxCell>
        <mxCell id="AoQbURMq3HvfSzOHLyI9-31" style="edgeStyle=orthogonalEdgeStyle;rounded=0;orthogonalLoop=1;jettySize=auto;html=1;entryX=0;entryY=0.5;entryDx=0;entryDy=0;entryPerimeter=0;" parent="AoQbURMq3HvfSzOHLyI9-1" target="AoQbURMq3HvfSzOHLyI9-21" edge="1">
          <mxGeometry relative="1" as="geometry">
            <Array as="points">
              <mxPoint x="189" y="168" />
            </Array>
            <mxPoint x="189" y="87.53999999999996" as="sourcePoint" />
          </mxGeometry>
        </mxCell>
        <mxCell id="AoQbURMq3HvfSzOHLyI9-21" value="" style="sketch=0;points=[[0,0,0],[0.25,0,0],[0.5,0,0],[0.75,0,0],[1,0,0],[0,1,0],[0.25,1,0],[0.5,1,0],[0.75,1,0],[1,1,0],[0,0.25,0],[0,0.5,0],[0,0.75,0],[1,0.25,0],[1,0.5,0],[1,0.75,0]];outlineConnect=0;fontColor=#232F3E;gradientColor=#945DF2;gradientDirection=north;fillColor=#5A30B5;strokeColor=#ffffff;dashed=0;verticalLabelPosition=bottom;verticalAlign=top;align=center;html=1;fontSize=12;fontStyle=0;aspect=fixed;shape=mxgraph.aws4.resourceIcon;resIcon=mxgraph.aws4.cloudfront;" parent="AoQbURMq3HvfSzOHLyI9-1" vertex="1">
          <mxGeometry x="270" y="134" width="68" height="68" as="geometry" />
        </mxCell>
        <mxCell id="AoQbURMq3HvfSzOHLyI9-26" style="edgeStyle=orthogonalEdgeStyle;rounded=0;orthogonalLoop=1;jettySize=auto;html=1;exitX=0;exitY=0.5;exitDx=0;exitDy=0;exitPerimeter=0;" parent="AoQbURMq3HvfSzOHLyI9-1" source="AoQbURMq3HvfSzOHLyI9-24" edge="1">
          <mxGeometry relative="1" as="geometry">
            <mxPoint x="227.62482532751096" y="58.799999999999955" as="targetPoint" />
          </mxGeometry>
        </mxCell>
        <mxCell id="AoQbURMq3HvfSzOHLyI9-27" style="edgeStyle=orthogonalEdgeStyle;rounded=0;orthogonalLoop=1;jettySize=auto;html=1;exitX=1;exitY=0.5;exitDx=0;exitDy=0;exitPerimeter=0;" parent="AoQbURMq3HvfSzOHLyI9-1" source="AoQbURMq3HvfSzOHLyI9-24" edge="1">
          <mxGeometry relative="1" as="geometry">
            <mxPoint x="660.3751746724893" y="58.799999999999955" as="targetPoint" />
          </mxGeometry>
        </mxCell>
        <mxCell id="AoQbURMq3HvfSzOHLyI9-24" value="" style="sketch=0;points=[[0,0,0],[0.25,0,0],[0.5,0,0],[0.75,0,0],[1,0,0],[0,1,0],[0.25,1,0],[0.5,1,0],[0.75,1,0],[1,1,0],[0,0.25,0],[0,0.5,0],[0,0.75,0],[1,0.25,0],[1,0.5,0],[1,0.75,0]];outlineConnect=0;fontColor=#232F3E;gradientColor=#945DF2;gradientDirection=north;fillColor=#5A30B5;strokeColor=#ffffff;dashed=0;verticalLabelPosition=bottom;verticalAlign=top;align=center;html=1;fontSize=12;fontStyle=0;aspect=fixed;shape=mxgraph.aws4.resourceIcon;resIcon=mxgraph.aws4.route_53;" parent="AoQbURMq3HvfSzOHLyI9-1" vertex="1">
          <mxGeometry x="441" y="24.769999999999982" width="68" height="68" as="geometry" />
        </mxCell>
        <mxCell id="4SqeToWKOJceurVRJzmu-1" value="Private subnet" style="points=[[0,0],[0.25,0],[0.5,0],[0.75,0],[1,0],[1,0.25],[1,0.5],[1,0.75],[1,1],[0.75,1],[0.5,1],[0.25,1],[0,1],[0,0.75],[0,0.5],[0,0.25]];outlineConnect=0;gradientColor=none;html=1;whiteSpace=wrap;fontSize=12;fontStyle=0;container=1;pointerEvents=0;collapsible=0;recursiveResize=0;shape=mxgraph.aws4.group;grIcon=mxgraph.aws4.group_security_group;grStroke=0;strokeColor=#147EBA;fillColor=#E6F2F8;verticalAlign=top;align=left;spacingLeft=30;fontColor=#147EBA;dashed=0;" vertex="1" parent="AoQbURMq3HvfSzOHLyI9-1">
          <mxGeometry x="88" y="1296" width="280" height="170" as="geometry" />
        </mxCell>
        <mxCell id="4SqeToWKOJceurVRJzmu-3" value="" style="sketch=0;points=[[0,0,0],[0.25,0,0],[0.5,0,0],[0.75,0,0],[1,0,0],[0,1,0],[0.25,1,0],[0.5,1,0],[0.75,1,0],[1,1,0],[0,0.25,0],[0,0.5,0],[0,0.75,0],[1,0.25,0],[1,0.5,0],[1,0.75,0]];outlineConnect=0;fontColor=#232F3E;gradientColor=#4D72F3;gradientDirection=north;fillColor=#3334B9;strokeColor=#ffffff;dashed=0;verticalLabelPosition=bottom;verticalAlign=top;align=center;html=1;fontSize=12;fontStyle=0;aspect=fixed;shape=mxgraph.aws4.resourceIcon;resIcon=mxgraph.aws4.rds;" vertex="1" parent="4SqeToWKOJceurVRJzmu-1">
          <mxGeometry x="100" y="39" width="78" height="78" as="geometry" />
        </mxCell>
        <mxCell id="4SqeToWKOJceurVRJzmu-22" style="edgeStyle=orthogonalEdgeStyle;rounded=0;orthogonalLoop=1;jettySize=auto;html=1;exitX=0.5;exitY=1;exitDx=0;exitDy=0;exitPerimeter=0;entryX=0.5;entryY=0;entryDx=0;entryDy=0;entryPerimeter=0;" edge="1" parent="AoQbURMq3HvfSzOHLyI9-1" source="4SqeToWKOJceurVRJzmu-33" target="4SqeToWKOJceurVRJzmu-3">
          <mxGeometry relative="1" as="geometry" />
        </mxCell>
        <mxCell id="4SqeToWKOJceurVRJzmu-26" style="edgeStyle=orthogonalEdgeStyle;rounded=0;orthogonalLoop=1;jettySize=auto;html=1;exitX=0;exitY=0.5;exitDx=0;exitDy=0;exitPerimeter=0;" edge="1" parent="AoQbURMq3HvfSzOHLyI9-1" source="AoQbURMq3HvfSzOHLyI9-15" target="AoQbURMq3HvfSzOHLyI9-11">
          <mxGeometry relative="1" as="geometry" />
        </mxCell>
        <mxCell id="AoQbURMq3HvfSzOHLyI9-15" value="" style="sketch=0;points=[[0,0,0],[0.25,0,0],[0.5,0,0],[0.75,0,0],[1,0,0],[0,1,0],[0.25,1,0],[0.5,1,0],[0.75,1,0],[1,1,0],[0,0.25,0],[0,0.5,0],[0,0.75,0],[1,0.25,0],[1,0.5,0],[1,0.75,0]];outlineConnect=0;fontColor=#232F3E;gradientColor=#F78E04;gradientDirection=north;fillColor=#D05C17;strokeColor=#ffffff;dashed=0;verticalLabelPosition=bottom;verticalAlign=top;align=center;html=1;fontSize=12;fontStyle=0;aspect=fixed;shape=mxgraph.aws4.resourceIcon;resIcon=mxgraph.aws4.ec2;" parent="AoQbURMq3HvfSzOHLyI9-1" vertex="1">
          <mxGeometry x="188" y="916" width="78" height="78" as="geometry" />
        </mxCell>
        <mxCell id="4SqeToWKOJceurVRJzmu-23" style="edgeStyle=orthogonalEdgeStyle;rounded=0;orthogonalLoop=1;jettySize=auto;html=1;exitX=0.5;exitY=1;exitDx=0;exitDy=0;exitPerimeter=0;" edge="1" parent="AoQbURMq3HvfSzOHLyI9-1" source="4SqeToWKOJceurVRJzmu-34" target="4SqeToWKOJceurVRJzmu-3">
          <mxGeometry relative="1" as="geometry" />
        </mxCell>
        <mxCell id="4SqeToWKOJceurVRJzmu-24" style="edgeStyle=orthogonalEdgeStyle;rounded=0;orthogonalLoop=1;jettySize=auto;html=1;exitX=1;exitY=0.5;exitDx=0;exitDy=0;exitPerimeter=0;entryX=0;entryY=0.5;entryDx=0;entryDy=0;entryPerimeter=0;" edge="1" parent="AoQbURMq3HvfSzOHLyI9-1" source="4SqeToWKOJceurVRJzmu-3" target="4SqeToWKOJceurVRJzmu-6">
          <mxGeometry relative="1" as="geometry" />
        </mxCell>
        <mxCell id="4SqeToWKOJceurVRJzmu-56" value="&lt;font style=&quot;font-size: 14px;&quot;&gt;&lt;b&gt;Sync&lt;/b&gt;&lt;/font&gt;" style="edgeLabel;html=1;align=center;verticalAlign=middle;resizable=0;points=[];" vertex="1" connectable="0" parent="4SqeToWKOJceurVRJzmu-24">
          <mxGeometry x="-0.1667" y="2" relative="1" as="geometry">
            <mxPoint as="offset" />
          </mxGeometry>
        </mxCell>
        <mxCell id="4SqeToWKOJceurVRJzmu-31" value="&lt;font style=&quot;font-size: 14px;&quot;&gt;&lt;b&gt;RDS&lt;br&gt;Primary DB&lt;br&gt;&lt;/b&gt;&lt;/font&gt;" style="text;html=1;align=center;verticalAlign=middle;resizable=0;points=[];autosize=1;strokeColor=none;fillColor=none;" vertex="1" parent="AoQbURMq3HvfSzOHLyI9-1">
          <mxGeometry x="177" y="1415" width="94" height="46" as="geometry" />
        </mxCell>
        <mxCell id="4SqeToWKOJceurVRJzmu-33" value="&lt;font style=&quot;font-size: 14px;&quot;&gt;&lt;b&gt;App Server&lt;br&gt;&lt;/b&gt;&lt;/font&gt;" style="text;html=1;align=center;verticalAlign=middle;resizable=0;points=[];autosize=1;strokeColor=none;fillColor=none;" vertex="1" parent="AoQbURMq3HvfSzOHLyI9-1">
          <mxGeometry x="180" y="992" width="93" height="29" as="geometry" />
        </mxCell>
        <mxCell id="4SqeToWKOJceurVRJzmu-42" value="&lt;font style=&quot;font-size: 14px;&quot;&gt;&lt;b&gt;NAT Gateway&lt;br&gt;&lt;/b&gt;&lt;/font&gt;" style="text;html=1;align=center;verticalAlign=middle;resizable=0;points=[];autosize=1;strokeColor=none;fillColor=none;" vertex="1" parent="AoQbURMq3HvfSzOHLyI9-1">
          <mxGeometry x="97" y="457" width="107" height="29" as="geometry" />
        </mxCell>
        <mxCell id="4SqeToWKOJceurVRJzmu-45" style="edgeStyle=orthogonalEdgeStyle;rounded=0;orthogonalLoop=1;jettySize=auto;html=1;exitX=0.363;exitY=0.862;exitDx=0;exitDy=0;exitPerimeter=0;entryX=0.5;entryY=0;entryDx=0;entryDy=0;entryPerimeter=0;" edge="1" parent="AoQbURMq3HvfSzOHLyI9-1" source="4SqeToWKOJceurVRJzmu-43" target="AoQbURMq3HvfSzOHLyI9-15">
          <mxGeometry relative="1" as="geometry">
            <Array as="points">
              <mxPoint x="458" y="858" />
              <mxPoint x="227" y="858" />
            </Array>
          </mxGeometry>
        </mxCell>
        <mxCell id="4SqeToWKOJceurVRJzmu-46" value="&lt;font style=&quot;font-size: 14px;&quot;&gt;&lt;b&gt;Load balancer&lt;br&gt;&lt;/b&gt;&lt;/font&gt;" style="text;html=1;align=center;verticalAlign=middle;resizable=0;points=[];autosize=1;strokeColor=none;fillColor=none;" vertex="1" parent="AoQbURMq3HvfSzOHLyI9-1">
          <mxGeometry x="428" y="259" width="113" height="29" as="geometry" />
        </mxCell>
        <mxCell id="4SqeToWKOJceurVRJzmu-48" value="&lt;font style=&quot;font-size: 14px;&quot;&gt;&lt;b&gt;CloudFront&lt;br&gt;&lt;/b&gt;&lt;/font&gt;" style="text;html=1;align=center;verticalAlign=middle;resizable=0;points=[];autosize=1;strokeColor=none;fillColor=none;" vertex="1" parent="AoQbURMq3HvfSzOHLyI9-1">
          <mxGeometry x="262" y="110" width="93" height="29" as="geometry" />
        </mxCell>
        <mxCell id="4SqeToWKOJceurVRJzmu-49" value="&lt;font style=&quot;font-size: 14px;&quot;&gt;&lt;b&gt;Route 53&lt;br&gt;&lt;/b&gt;&lt;/font&gt;" style="text;html=1;align=center;verticalAlign=middle;resizable=0;points=[];autosize=1;strokeColor=none;fillColor=none;" vertex="1" parent="AoQbURMq3HvfSzOHLyI9-1">
          <mxGeometry x="436" y="88" width="77" height="29" as="geometry" />
        </mxCell>
        <mxCell id="4SqeToWKOJceurVRJzmu-52" value="" style="sketch=0;points=[[0,0,0],[0.25,0,0],[0.5,0,0],[0.75,0,0],[1,0,0],[0,1,0],[0.25,1,0],[0.5,1,0],[0.75,1,0],[1,1,0],[0,0.25,0],[0,0.5,0],[0,0.75,0],[1,0.25,0],[1,0.5,0],[1,0.75,0]];outlineConnect=0;fontColor=#232F3E;gradientColor=#F54749;gradientDirection=north;fillColor=#C7131F;strokeColor=#ffffff;dashed=0;verticalLabelPosition=bottom;verticalAlign=top;align=center;html=1;fontSize=12;fontStyle=0;aspect=fixed;shape=mxgraph.aws4.resourceIcon;resIcon=mxgraph.aws4.waf;" vertex="1" parent="AoQbURMq3HvfSzOHLyI9-1">
          <mxGeometry x="166" y="25" width="64" height="64" as="geometry" />
        </mxCell>
        <mxCell id="4SqeToWKOJceurVRJzmu-53" value="" style="sketch=0;points=[[0,0,0],[0.25,0,0],[0.5,0,0],[0.75,0,0],[1,0,0],[0,1,0],[0.25,1,0],[0.5,1,0],[0.75,1,0],[1,1,0],[0,0.25,0],[0,0.5,0],[0,0.75,0],[1,0.25,0],[1,0.5,0],[1,0.75,0]];outlineConnect=0;fontColor=#232F3E;gradientColor=#F54749;gradientDirection=north;fillColor=#C7131F;strokeColor=#ffffff;dashed=0;verticalLabelPosition=bottom;verticalAlign=top;align=center;html=1;fontSize=12;fontStyle=0;aspect=fixed;shape=mxgraph.aws4.resourceIcon;resIcon=mxgraph.aws4.waf;" vertex="1" parent="AoQbURMq3HvfSzOHLyI9-1">
          <mxGeometry x="662" y="24" width="64" height="64" as="geometry" />
        </mxCell>
        <mxCell id="4SqeToWKOJceurVRJzmu-54" value="&lt;font style=&quot;font-size: 14px;&quot;&gt;&lt;b&gt;WAF&lt;br&gt;&lt;/b&gt;&lt;/font&gt;" style="text;html=1;align=center;verticalAlign=middle;resizable=0;points=[];autosize=1;strokeColor=none;fillColor=none;" vertex="1" parent="AoQbURMq3HvfSzOHLyI9-1">
          <mxGeometry x="170" y="3" width="49" height="29" as="geometry" />
        </mxCell>
        <mxCell id="4SqeToWKOJceurVRJzmu-55" value="&lt;font style=&quot;font-size: 14px;&quot;&gt;&lt;b&gt;WAF&lt;br&gt;&lt;/b&gt;&lt;/font&gt;" style="text;html=1;align=center;verticalAlign=middle;resizable=0;points=[];autosize=1;strokeColor=none;fillColor=none;" vertex="1" parent="AoQbURMq3HvfSzOHLyI9-1">
          <mxGeometry x="668" y="4" width="49" height="29" as="geometry" />
        </mxCell>
        <mxCell id="AoQbURMq3HvfSzOHLyI9-19" value="" style="sketch=0;points=[[0,0,0],[0.25,0,0],[0.5,0,0],[0.75,0,0],[1,0,0],[0,1,0],[0.25,1,0],[0.5,1,0],[0.75,1,0],[1,1,0],[0,0.25,0],[0,0.5,0],[0,0.75,0],[1,0.25,0],[1,0.5,0],[1,0.75,0]];outlineConnect=0;fontColor=#232F3E;gradientColor=#945DF2;gradientDirection=north;fillColor=#5A30B5;strokeColor=#ffffff;dashed=0;verticalLabelPosition=bottom;verticalAlign=top;align=center;html=1;fontSize=12;fontStyle=0;aspect=fixed;shape=mxgraph.aws4.resourceIcon;resIcon=mxgraph.aws4.elastic_load_balancing;" parent="1" vertex="1">
          <mxGeometry x="390" y="820" width="68" height="68" as="geometry" />
        </mxCell>
        <mxCell id="AoQbURMq3HvfSzOHLyI9-25" value="" style="sketch=0;outlineConnect=0;fontColor=#232F3E;gradientColor=none;fillColor=#232F3D;strokeColor=none;dashed=0;verticalLabelPosition=bottom;verticalAlign=top;align=center;html=1;fontSize=12;fontStyle=0;aspect=fixed;pointerEvents=1;shape=mxgraph.aws4.client;" parent="1" vertex="1">
          <mxGeometry x="149" y="-21" width="124" height="120.82" as="geometry" />
        </mxCell>
        <mxCell id="AoQbURMq3HvfSzOHLyI9-32" style="edgeStyle=orthogonalEdgeStyle;rounded=0;orthogonalLoop=1;jettySize=auto;html=1;entryX=0.5;entryY=0;entryDx=0;entryDy=0;entryPerimeter=0;" parent="1" source="AoQbURMq3HvfSzOHLyI9-25" target="AoQbURMq3HvfSzOHLyI9-24" edge="1">
          <mxGeometry relative="1" as="geometry">
            <Array as="points">
              <mxPoint x="425" y="28" />
            </Array>
          </mxGeometry>
        </mxCell>
        <mxCell id="4SqeToWKOJceurVRJzmu-18" style="edgeStyle=orthogonalEdgeStyle;rounded=0;orthogonalLoop=1;jettySize=auto;html=1;exitX=0.5;exitY=1;exitDx=0;exitDy=0;exitPerimeter=0;entryX=0.25;entryY=0;entryDx=0;entryDy=0;entryPerimeter=0;" edge="1" parent="1" source="4SqeToWKOJceurVRJzmu-37" target="AoQbURMq3HvfSzOHLyI9-19">
          <mxGeometry relative="1" as="geometry" />
        </mxCell>
        <mxCell id="4SqeToWKOJceurVRJzmu-19" style="edgeStyle=orthogonalEdgeStyle;rounded=0;orthogonalLoop=1;jettySize=auto;html=1;exitX=0.5;exitY=1;exitDx=0;exitDy=0;exitPerimeter=0;entryX=0.75;entryY=0;entryDx=0;entryDy=0;entryPerimeter=0;" edge="1" parent="1" source="4SqeToWKOJceurVRJzmu-39" target="AoQbURMq3HvfSzOHLyI9-19">
          <mxGeometry relative="1" as="geometry" />
        </mxCell>
        <mxCell id="4SqeToWKOJceurVRJzmu-37" value="&lt;font style=&quot;font-size: 14px;&quot;&gt;&lt;b&gt;Web Server&lt;br&gt;&lt;/b&gt;&lt;/font&gt;" style="text;html=1;align=center;verticalAlign=middle;resizable=0;points=[];autosize=1;strokeColor=none;fillColor=none;" vertex="1" parent="1">
          <mxGeometry x="181" y="708" width="95" height="29" as="geometry" />
        </mxCell>
        <mxCell id="4SqeToWKOJceurVRJzmu-50" value="&lt;font style=&quot;font-size: 14px;&quot;&gt;&lt;b&gt;User&amp;nbsp;&lt;br&gt;&lt;/b&gt;&lt;/font&gt;" style="text;html=1;align=center;verticalAlign=middle;resizable=0;points=[];autosize=1;strokeColor=none;fillColor=none;" vertex="1" parent="1">
          <mxGeometry x="180" y="-45" width="53" height="29" as="geometry" />
        </mxCell>
        <mxCell id="4SqeToWKOJceurVRJzmu-51" value="&lt;font style=&quot;font-size: 14px;&quot;&gt;&lt;b&gt;www.app.com&lt;br&gt;&lt;/b&gt;&lt;/font&gt;" style="text;html=1;align=center;verticalAlign=middle;resizable=0;points=[];autosize=1;strokeColor=none;fillColor=none;" vertex="1" parent="1">
          <mxGeometry x="155" y="5" width="112" height="29" as="geometry" />
        </mxCell>
      </root>
    </mxGraphModel>
  </diagram>
</mxfile>
